<mxfile host="app.diagrams.net" modified="2024-03-23T18:16:03.749Z" agent="Mozilla/5.0 (Windows NT 10.0; Win64; x64) AppleWebKit/537.36 (KHTML, like Gecko) Chrome/122.0.0.0 Safari/537.36 Edg/122.0.0.0" etag="iTnx-aSyZLwpIZxvS1Bf" version="24.0.6" type="github">
  <diagram name="Page-1" id="b5b7bab2-c9e2-2cf4-8b2a-24fd1a2a6d21">
    <mxGraphModel dx="1387" dy="865" grid="1" gridSize="10" guides="1" tooltips="1" connect="1" arrows="1" fold="1" page="1" pageScale="1" pageWidth="827" pageHeight="1169" background="none" math="0" shadow="0">
      <root>
        <mxCell id="0" />
        <mxCell id="1" parent="0" />
        <mxCell id="28QVhBkN_ToioN5ZWOhv-4" value="DB&lt;div&gt;&lt;br&gt;&lt;/div&gt;" style="shape=datastore;whiteSpace=wrap;html=1;" vertex="1" parent="1">
          <mxGeometry x="390" y="510" width="130" height="140" as="geometry" />
        </mxCell>
        <mxCell id="28QVhBkN_ToioN5ZWOhv-7" value="" style="endArrow=none;html=1;rounded=0;entryX=0.322;entryY=0.021;entryDx=0;entryDy=0;entryPerimeter=0;exitX=0.323;exitY=1.006;exitDx=0;exitDy=0;exitPerimeter=0;" edge="1" parent="1">
          <mxGeometry width="50" height="50" relative="1" as="geometry">
            <mxPoint x="581.4499999999998" y="1060.3999999999999" as="sourcePoint" />
            <mxPoint x="580.3000000000002" y="134.5" as="targetPoint" />
            <Array as="points">
              <mxPoint x="580" y="594.76" />
            </Array>
          </mxGeometry>
        </mxCell>
        <mxCell id="28QVhBkN_ToioN5ZWOhv-9" value="&lt;span style=&quot;font-size: 36px;&quot;&gt;BACKEND&lt;/span&gt;" style="rounded=0;whiteSpace=wrap;html=1;" vertex="1" parent="1">
          <mxGeometry x="580" y="140" width="470" height="60" as="geometry" />
        </mxCell>
        <mxCell id="28QVhBkN_ToioN5ZWOhv-11" value="&lt;font style=&quot;font-size: 36px;&quot;&gt;FRONTEND&lt;/font&gt;&lt;span style=&quot;color: rgba(0, 0, 0, 0); font-family: monospace; font-size: 0px; text-align: start; text-wrap: nowrap;&quot;&gt;%3CmxGraphModel%3E%3Croot%3E%3CmxCell%20id%3D%220%22%2F%3E%3CmxCell%20id%3D%221%22%20parent%3D%220%22%2F%3E%3CmxCell%20id%3D%222%22%20value%3D%22%22%20style%3D%22endArrow%3Dnone%3Bhtml%3D1%3Brounded%3D0%3BentryX%3D0.322%3BentryY%3D0.021%3BentryDx%3D0%3BentryDy%3D0%3BentryPerimeter%3D0%3BexitX%3D0.323%3BexitY%3D1.006%3BexitDx%3D0%3BexitDy%3D0%3BexitPerimeter%3D0%3B%22%20edge%3D%221%22%20parent%3D%221%22%3E%3CmxGeometry%20width%3D%2250%22%20height%3D%2250%22%20relative%3D%221%22%20as%3D%22geometry%22%3E%3CmxPoint%20x%3D%22581.4499999999998%22%20y%3D%221060.3999999999999%22%20as%3D%22sourcePoint%22%2F%3E%3CmxPoint%20x%3D%22580.3000000000002%22%20y%3D%22134.5%22%20as%3D%22targetPoint%22%2F%3E%3CArray%20as%3D%22points%22%3E%3CmxPoint%20x%3D%22580%22%20y%3D%22594.76%22%2F%3E%3C%2FArray%3E%3C%2FmxGeometry%3E%3C%2FmxCell%3E%3C%2Froot%3E%3C%2FmxGraphModel%3E&lt;/span&gt;" style="rounded=0;whiteSpace=wrap;html=1;" vertex="1" parent="1">
          <mxGeometry x="1050" y="140" width="470" height="60" as="geometry" />
        </mxCell>
        <mxCell id="28QVhBkN_ToioN5ZWOhv-13" value="" style="endArrow=none;html=1;rounded=0;entryX=0;entryY=0;entryDx=0;entryDy=0;exitX=0.323;exitY=1.006;exitDx=0;exitDy=0;exitPerimeter=0;shadow=0;strokeColor=default;strokeWidth=2;" edge="1" parent="1" target="28QVhBkN_ToioN5ZWOhv-11">
          <mxGeometry width="50" height="50" relative="1" as="geometry">
            <mxPoint x="1051.4499999999998" y="1060.3999999999999" as="sourcePoint" />
            <mxPoint x="1050.3000000000002" y="134.5" as="targetPoint" />
            <Array as="points">
              <mxPoint x="1050" y="594.76" />
            </Array>
          </mxGeometry>
        </mxCell>
        <mxCell id="28QVhBkN_ToioN5ZWOhv-12" value="" style="shape=folder;fontStyle=1;spacingTop=10;tabWidth=60;tabHeight=30;tabPosition=left;html=1;whiteSpace=wrap;" vertex="1" parent="1">
          <mxGeometry x="580" y="200" width="470" height="480" as="geometry" />
        </mxCell>
        <mxCell id="28QVhBkN_ToioN5ZWOhv-14" value="LOGIN" style="text;html=1;align=center;verticalAlign=middle;whiteSpace=wrap;rounded=0;" vertex="1" parent="1">
          <mxGeometry x="580" y="210" width="60" height="30" as="geometry" />
        </mxCell>
        <mxCell id="28QVhBkN_ToioN5ZWOhv-15" value="" style="endArrow=none;html=1;rounded=0;entryX=0;entryY=0;entryDx=0;entryDy=0;exitX=0.323;exitY=1.006;exitDx=0;exitDy=0;exitPerimeter=0;shadow=0;strokeColor=default;strokeWidth=2;" edge="1" parent="1">
          <mxGeometry width="50" height="50" relative="1" as="geometry">
            <mxPoint x="1521.4499999999998" y="1070.3999999999999" as="sourcePoint" />
            <mxPoint x="1520" y="150" as="targetPoint" />
            <Array as="points">
              <mxPoint x="1520" y="604.76" />
            </Array>
          </mxGeometry>
        </mxCell>
        <mxCell id="28QVhBkN_ToioN5ZWOhv-16" value="&lt;font style=&quot;font-size: 18px;&quot;&gt;UserRegister()&lt;/font&gt;" style="shape=folder;fontStyle=1;spacingTop=10;tabWidth=40;tabHeight=14;tabPosition=left;html=1;whiteSpace=wrap;" vertex="1" parent="1">
          <mxGeometry x="710" y="230" width="180" height="80" as="geometry" />
        </mxCell>
        <mxCell id="28QVhBkN_ToioN5ZWOhv-17" value="&lt;font style=&quot;font-size: 18px;&quot;&gt;UserLogin()&lt;/font&gt;" style="shape=folder;fontStyle=1;spacingTop=10;tabWidth=40;tabHeight=14;tabPosition=left;html=1;whiteSpace=wrap;" vertex="1" parent="1">
          <mxGeometry x="710" y="360" width="170" height="80" as="geometry" />
        </mxCell>
        <mxCell id="28QVhBkN_ToioN5ZWOhv-18" value="&lt;span style=&quot;font-size: 18px;&quot;&gt;EmailValidation()&lt;/span&gt;" style="shape=folder;fontStyle=1;spacingTop=10;tabWidth=40;tabHeight=14;tabPosition=left;html=1;whiteSpace=wrap;" vertex="1" parent="1">
          <mxGeometry x="710" y="470" width="160" height="80" as="geometry" />
        </mxCell>
        <mxCell id="28QVhBkN_ToioN5ZWOhv-19" value="&lt;font style=&quot;font-size: 18px;&quot;&gt;PasswordExchange()&lt;/font&gt;" style="shape=folder;fontStyle=1;spacingTop=10;tabWidth=40;tabHeight=14;tabPosition=left;html=1;whiteSpace=wrap;" vertex="1" parent="1">
          <mxGeometry x="710" y="584.5" width="200" height="95" as="geometry" />
        </mxCell>
      </root>
    </mxGraphModel>
  </diagram>
</mxfile>
